<?xml version="1.0" encoding="UTF-8" standalone="no"?>
<!DOCTYPE svg PUBLIC "-//W3C//DTD SVG 1.1//EN" "http://www.w3.org/Graphics/SVG/1.1/DTD/svg11.dtd">
<svg width="100%" height="100%" viewBox="0 0 490 489" version="1.1" xmlns="http://www.w3.org/2000/svg" xmlns:xlink="http://www.w3.org/1999/xlink" xml:space="preserve" xmlns:serif="http://www.serif.com/" style="fill-rule:evenodd;clip-rule:evenodd;stroke-linejoin:round;stroke-miterlimit:2;">
    <g id="Layer_2" transform="matrix(1,0,0,1,-155,-60)">
        <g id="Layer_2-2">
            <path d="M396.9,61.1C440.3,60.8 483.1,71.6 521.1,92.6C559.2,113.6 589.1,142.2 610.8,178.4C633.2,215.9 644.3,256.9 644.3,301.6C644.3,356.2 629,405 598.5,448C568,491 528,520.8 478.8,537.2C473.5,538.5 469.4,537.8 466.5,535.2C463.6,532.7 462,529.1 462.1,525.3L462.1,442.5C462.1,421.5 456.5,406.4 445.3,397.2C469.6,394.6 487.7,391.3 499.5,387.3C517.9,380.7 532.1,370.9 541.9,357.7C553.1,340.6 558.7,317.3 558.6,287.7C558.6,275.2 556.3,264.4 551.7,255.2C548.4,248.6 542.2,240.4 533,230.6C535.8,223 537.5,215 537.9,206.9C538.5,192.1 536.2,177.4 531,163.5C524.4,161.5 515.2,162.8 503.4,167.4C493.9,171.5 484.7,176.1 475.8,181.2L463,190.1C442.7,184.2 421.6,181.2 400.4,181.2C379.5,181.1 358.8,184.1 338.8,190.1L326,181.2C316.8,175.9 307.3,171.3 297.4,167.4C285.6,162.8 276.7,161.5 270.8,163.5C265,177.2 262.7,192.1 264,206.9C264,216.1 265.3,223.7 267.9,229.6C261,237.9 255.2,247 250.7,256.8C247.1,265 245.3,275.3 245.3,287.9C245.3,317.5 250.6,340.5 261.1,357C270.3,370.8 284.1,381 302.5,387.5C314.3,391.4 332.1,394.7 355.7,397.4C347.2,405.3 341.9,416.4 339.9,430.9C328.7,436.2 317.8,438.1 307.3,436.7C290.2,435.4 277.1,426.5 267.9,410.1C264.1,403 258.7,397 252.1,392.4C247.4,389.7 242.4,387.4 237.3,385.5L230.4,384.5C223.2,384.5 219.4,385.6 219.1,387.9C218.8,390.2 220.2,392.7 223.5,395.3L228.4,399.2C233.8,402.5 238.5,406.9 242.2,412C246.2,416.7 249.6,422.1 252.1,427.8L256,435.6C259.1,445.3 265.8,453.4 274.7,458.3C283.5,463.2 293.3,466.2 303.3,467.2C311.5,467.8 319.7,467.5 327.9,466.2L338.8,465.2L339.8,525.3C339.9,529.1 338.2,532.7 335.4,535.2C332.4,537.8 328.3,538.5 323.1,537.2C273.1,520.8 232.7,491 201.8,448C170.9,405 155.5,356.2 155.5,301.6C155.5,256.9 166,216.1 187,179.4C207.5,143.1 237.5,113.1 273.7,92.7C310.4,71.6 351.5,61.1 396.9,61.1ZM240.1,393.3C241.4,392 243.5,391.8 245,392.8C247,393.8 247.6,395.1 247,396.7C246.4,398.3 244.9,398.5 242.6,397.2C240.3,395.9 239.5,394.6 240.1,393.3ZM251,401.2C252.3,399.9 254,400.2 255.9,402.2C257.9,404.2 258.2,405.8 256.9,407.1C255.6,408.4 253.9,408.1 252,406.1C250,404.1 249.7,402.5 251,401.2ZM260.8,414C262.6,412.8 265,413.2 266.2,415C266.4,415.3 266.6,415.6 266.7,416C268.7,418.6 268.7,420.6 266.7,421.9C266,422.6 265.2,422.6 264.2,421.9C263.1,421.2 261.9,420.5 260.7,419.9C259.5,416.6 259.5,414.6 260.8,414ZM272.7,427.8C273.5,427.1 274.7,426.9 275.7,427.3C278.3,428 280.4,430.1 281.1,432.7C281.5,433.7 281.3,434.8 280.6,435.7C278.6,437.7 276.3,437.3 273.7,434.7C272.5,433.7 271.8,432.3 271.7,430.8C271.6,429.7 272,428.6 272.7,427.8ZM288.5,440.6C289.1,438 291.1,437.1 294.4,438.1C297.7,439.1 299.2,440.4 298.8,442C298.6,443.5 297.7,444.8 296.3,445.5C295.1,446.2 293.6,446.2 292.4,445.5C291.1,444.9 290,444 289,443C288,442.1 287.8,441.2 288.5,440.6ZM319,444.5C319,443.8 318.5,443.2 317.5,442.5C316.1,441.7 314.6,441.4 313.1,441.5C309.8,441.5 308.2,442.8 308.2,445.4C308.2,448 310,449.2 313.6,448.9C317.1,448.7 319,447.2 319,444.5ZM331.9,438.7C335.2,438.7 337,439.7 337.3,441.6C337.6,443.5 336.1,445.2 332.9,446.5C331.7,446.5 330.6,446.4 329.5,446C328.5,445.7 327.9,444.5 327.5,442.6C327.1,440.7 328.5,439.3 331.9,438.7Z" style="fill:url(#_Linear1);fill-rule:nonzero;"/>
        </g>
    </g>
    <defs>
        <linearGradient id="_Linear1" x1="0" y1="0" x2="1" y2="0" gradientUnits="userSpaceOnUse" gradientTransform="matrix(348.602,348.586,-348.586,348.602,225.018,129.421)"><stop offset="0" style="stop-color:rgb(63,224,197);stop-opacity:1"/><stop offset="0.5" style="stop-color:rgb(228,166,99);stop-opacity:1"/><stop offset="0.56" style="stop-color:rgb(228,157,104);stop-opacity:1"/><stop offset="0.67" style="stop-color:rgb(229,133,119);stop-opacity:1"/><stop offset="0.8" style="stop-color:rgb(230,93,143);stop-opacity:1"/><stop offset="0.95" style="stop-color:rgb(232,38,176);stop-opacity:1"/><stop offset="1" style="stop-color:rgb(233,17,189);stop-opacity:1"/></linearGradient>
    </defs>
</svg>
