<svg
    width="1200"
    height="630"
    viewBox="0 0 1200 630"
    version="1.1"
    xmlns="http://www.w3.org/2000/svg"
    xmlns:xlink="http://www.w3.org/1999/xlink">

		
		
		
		
		

		<!-- SVG background, generate your own on: https://app.haikei.app/ or  https://pattern.monster/ -->
		<svg id="visual" viewBox="0 0 900 600" width="900" height="600" xmlns="http://www.w3.org/2000/svg" xmlns:xlink="http://www.w3.org/1999/xlink" version="1.1"><rect x="0" y="0" width="900" height="600" fill="#202020"></rect><path d="M0 90L15 106.5C30 123 60 156 90 169.3C120 182.7 150 176.3 180 171.2C210 166 240 162 270 152C300 142 330 126 360 128.5C390 131 420 152 450 151.8C480 151.7 510 130.3 540 129.5C570 128.7 600 148.3 630 145C660 141.7 690 115.3 720 96.2C750 77 780 65 810 69.2C840 73.3 870 93.7 885 103.8L900 114L900 0L885 0C870 0 840 0 810 0C780 0 750 0 720 0C690 0 660 0 630 0C600 0 570 0 540 0C510 0 480 0 450 0C420 0 390 0 360 0C330 0 300 0 270 0C240 0 210 0 180 0C150 0 120 0 90 0C60 0 30 0 15 0L0 0Z" fill="#F7770F" stroke-linecap="round" stroke-linejoin="miter"></path></svg>

		<!-- if you need to darken or lighten your bg -->
		<rect id="bg" width="100%" height="100%" opacity="0.1" fill="#343434"/>
		<rect id="name-bg" width="100%" height="42px" fill="#343434" transform="translate(150,550)" />

		<!-- date -->
		<text
			font-family="&#39;Red Hat Display&#39;, Ubuntu, sans-serif"
			font-size="24"
			font-weight="900"
			fill="#FBFBFB"
			letter-spacing="-1"
		>
			<tspan x="160" y="130">
				06 / 03 / 2024
			</tspan>
		</text>

		<!-- title -->
		<text
			id="text"
			font-family="&#39;Red Hat Display&#39;, Ubuntu, sans-serif"
			font-size="80"
			font-weight="900"
			fill="#FBFBFB"
			letter-spacing="-3"
		>
			
			<tspan x="160" y="230">
				Wellbeing Group visit
			</tspan>
			
			<tspan x="160" y="315">
				to Fletcher Moss
			</tspan>
			
			<tspan x="160" y="400">
				Gardens
			</tspan>
			
		</text>

		<!-- sitename / url -->
		<text
		font-family="&#39;Red Hat Display&#39;, Ubuntu, sans-serif"
			font-size="24"
			font-weight="500"
			fill="#FBFBFB"
			letter-spacing="-0.5"
		>
			<!-- <tspan x="160" y="580">www.thewalkingdeaf.net · www.thewalkingdeaf.net</tspan> -->
			<tspan x="160" y="580">www.thewalkingdeaf.net — https://www.thewalkingdeaf.net</tspan>
		</text>
</svg>